<svg xmlns="http://www.w3.org/2000/svg" viewBox="0 0 107 107">
  <g id="b5911184-426e-47b5-be01-88c1011f5f3e" data-name="Layer 2">
    <g id="e4fd0468-0574-4b84-b091-2f13fd60e1d2" data-name="Layer 1">
      <path d="M53.5,0A53.5,53.5,0,1,0,107,53.5,53.5,53.5,0,0,0,53.5,0ZM44,73.34a.47.47,0,0,1-.35.15l-8.28,0h0a.5.5,0,0,1-.5-.5l-.08-26.5a.51.51,0,0,1,.5-.5l8.29,0h0a.5.5,0,0,1,.35.14.53.53,0,0,1,.15.36L44.16,73A.47.47,0,0,1,44,73.34ZM39.23,43.69h-.08a5.11,5.11,0,0,1-5.44-5.08c0-3,2.33-5.11,5.55-5.12s5.43,2,5.51,5.07S42.5,43.68,39.23,43.69ZM76.79,73.4l-9.39,0h0a.51.51,0,0,1-.5-.5l0-13.72c0-2.06-.56-5.52-4.21-5.52a4.27,4.27,0,0,0-4,2.94,4.73,4.73,0,0,0-.17,1.69v.29l0,14.34a.5.5,0,0,1-.5.5l-9.3,0h0a.53.53,0,0,1-.36-.15.5.5,0,0,1-.14-.35c0-.25.05-24.31-.08-26.48a.52.52,0,0,1,.14-.37.48.48,0,0,1,.36-.16l9.3,0h0a.5.5,0,0,1,.5.5V48.8a10.23,10.23,0,0,1,7.76-3.13c6.8,0,11,4.79,11,12.49l0,14.74A.5.5,0,0,1,76.79,73.4Z" style="fill: #e6e6fa"/>
    </g>
  </g>
</svg>
