<svg xmlns="http://www.w3.org/2000/svg" viewBox="0 0 107 107">
  <g id="ff4c78b3-f851-40fc-9f6d-91539fe9144d" data-name="Layer 2">
    <g id="b8d2bd04-31e6-4c7b-9969-7ae8c734a47d" data-name="Layer 1">
      <g>
        <path d="M53.5,0A53.5,53.5,0,1,0,107,53.5,53.5,53.5,0,0,0,53.5,0ZM73.78,69.8a25.49,25.49,0,0,1-17,9.39,25.21,25.21,0,0,1-14.85-2.57,2.08,2.08,0,0,0-1.6-.17c-4.11,1.1-8.22,2.17-12.33,3.24-.72.19-.75.18-.54-.56,1.09-4,2.17-7.94,3.28-11.9a2.12,2.12,0,0,0-.19-1.75,25.83,25.83,0,0,1-3-10.5A25.48,25.48,0,0,1,30,42.2,25.88,25.88,0,0,1,40.75,30.6a24.89,24.89,0,0,1,9-3.11A26.14,26.14,0,0,1,77,41.78,25,25,0,0,1,79.6,51.5,25.52,25.52,0,0,1,73.78,69.8Z" style="fill: #e6e6fa"/>
        <path d="M66.15,59.23c-1.72-.86-3.42-1.75-5.2-2.48-.73-.31-1-.22-1.44.41a28.41,28.41,0,0,1-1.91,2.35,1.18,1.18,0,0,1-1.42.31,17.76,17.76,0,0,1-8.92-7.67c-.43-.72-.38-.95.18-1.61a14.5,14.5,0,0,0,1.31-1.62,1.82,1.82,0,0,0,.17-1.87c-.57-1.25-1.08-2.53-1.61-3.81-.75-1.82-.74-1.81-2.72-1.81A2.24,2.24,0,0,0,43,42a7.23,7.23,0,0,0-2,3,8.21,8.21,0,0,0,.5,6.44,29.84,29.84,0,0,0,5,6.92,24.49,24.49,0,0,0,11.47,7,7.15,7.15,0,0,0,2.56.31,6.36,6.36,0,0,0,4.06-1.25A4.74,4.74,0,0,0,66.63,60,.8.8,0,0,0,66.15,59.23Z" style="fill: #e6e6fa"/>
      </g>
    </g>
  </g>
</svg>
