<svg xmlns="http://www.w3.org/2000/svg" viewBox="0 0 107 107">
  <g id="afce6df1-5349-44da-b1f6-b629797ff3af" data-name="Layer 2">
    <g id="f71d5371-1e5f-4e76-accc-0eca2628a9d4" data-name="Layer 1">
      <g>
        <path d="M53.5,0A53.5,53.5,0,1,0,107,53.5,53.5,53.5,0,0,0,53.5,0Zm26,65.3c-1,5.09-3.8,6.59-7.61,7s-31.89.59-36.22.09c0,0-7.67.5-8.42-8a149.78,149.78,0,0,1-.17-18.5s-.25-7.75,7.59-8.59,32.83-.83,37.5-.16,7.42,4.08,7.58,9C80,51.3,80.53,60.22,79.53,65.3Z" style="fill: #e6e6fa"/>
        <polygon points="49.71 62.68 62.12 54.67 49.71 46.67 49.71 62.68" style="fill: #e6e6fa"/>
      </g>
    </g>
  </g>
</svg>
